<svg xmlns="http://www.w3.org/2000/svg" >

  <!-- Compartir -->
  <symbol 
    id="share" 
    viewBox="0 0 24 24"
    >
    <path stroke="none" d="M0 0h24v24H0z" fill="none"/>
    <path d="M6 12m-3 0a3 3 0 1 0 6 0a3 3 0 1 0 -6 0" />
    <path d="M18 6m-3 0a3 3 0 1 0 6 0a3 3 0 1 0 -6 0" />
    <path d="M18 18m-3 0a3 3 0 1 0 6 0a3 3 0 1 0 -6 0" />
    <path d="M8.7 10.7l6.6 -3.4" />
    <path d="M8.7 13.3l6.6 3.4" />
  </symbol>

  <!-- Corazon -->
  <symbol 
    id="heart"
    viewBox="0 0 24 24" 
    >
    <path stroke="none" d="M0 0h24v24H0z" fill="none"/>
    <path d="M19.5 12.572l-7.5 7.428l-7.5 -7.428a5 5 0 1 1 7.5 -6.566a5 5 0 1 1 7.5 6.572" />
  </symbol>

  <!-- Mensaje -->
  <symbol  
    id="message"  
    viewBox="0 0 24 24"  
    >
    <path stroke="none" d="M0 0h24v24H0z" fill="none"/>
    <path d="M8 9h8" />
    <path d="M8 13h6" />
    <path d="M9 18h-3a3 3 0 0 1 -3 -3v-8a3 3 0 0 1 3 -3h12a3 3 0 0 1 3 3v8a3 3 0 0 1 -3 3h-3l-3 3l-3 -3z" />
  </symbol>
 
</svg>